<svg 
  id="__1mw9rXU__Layer_2"
  xmlns="http://www.w3.org/2000/svg"
  viewBox="0 0 18 19">
  <path
    id="__1mw9rXU__bookBoundsPath"
    fill="#898989"
    d="M15.5,1H3.5A1.5,1.5,0,0,0,2,2.5v14A1.5,1.5,0,0,0,3.5,18h12A1.5,1.5,0,0,0,17,16.5V2.5A1.5,1.5,0,0,0,15.5,1ZM16,16.5a.5.5,0,0,1-.5.5H3.5a.5.5,0,0,1-.5-.5V2.5A.5.5,0,0,1,3.5,2h12a.5.5,0,0,1,.5.5Z">
  </path>
  <path
    id="__1mw9rXU__bindingPath"
    fill="#d10"
    d="M3,5H1V4H3ZM3,6H1V7H3ZM3,8H1V9H3Zm0,2H1v1H3Zm0,2H1v1H3Zm0,2H1v1H3Zm0,2.5V16H1v1H3.5A.5.5,0,0,1,3,16.5Zm0-14A.5.5,0,0,1,3.5,2H1V3H3Z">
  </path>
  <rect
    id="__1mw9rXU__backgroundPath"
    fill="#fff"
    x="3"
    y="2"
    width="13"
    height="15"
    rx=".5">
  </rect>
  <path
    id="__1mw9rXU__spikeyPath"
    fill="#d10"
    d="M13.09,9.54l1.54-1.73-2.26-.49L12.6,5l-2.12.93L9.32,4l-1.17,2L6,5l.23,2.31L4,7.81,5.54,9.54,4,11.26l2.26.5L6,14.06l2.12-.93,1.17,2,1.16-2,2.12.93-.23-2.3,2.26-.5Zm.41,1.11-1-.35-.7-.91.9.33Zm-3.32,2.14-.64,1.09V12.75l.66-1ZM8.68,7.14,7.59,6.75,7,5.9l1.15.5Zm1.85-.74,1.15-.5-.63.85L10,7.14Zm1.39,1-.55.79L11.4,7l.65-.87Zm-2.6,4.88-.85-1.24L9.32,9.9l.85,1.15ZM7.72,8.76l0-1.51,1.42.5V9.22Zm1.82-1L11,7.25l0,1.51-1.38.46ZM6.71,7.41,6.58,6.14,7.23,7l0,1.19ZM9,9.64l-.85,1.15-1.45-.42.92-1.2Zm-.53,2.14.66,1v1.13l-.64-1.09ZM9.67,9.64l1.38-.47.92,1.2-1.45.42Zm4.14-1.56-1.07,1.2-1.27-.47.76-1.08ZM9.32,4.82l.81,1.39-.81,1-.82-1ZM4.83,8.08,6.4,7.73l.76,1.08L5.9,9.28ZM6,9.72l.91-.33-.71.91-1,.35Zm-.73,1.36,1.07-.36,1.15.33-1,.31Zm1.47.67L8,11.34l0,1.37-1.48.65Zm3.92,1,0-1.37,1.28.41.16,1.61Zm1.52-1.35-1-.31,1.14-.33,1.07.36Z">
  </path>
</svg>